<svg xmlns="http://www.w3.org/2000/svg" viewBox="0 0 96 96" fill="none">
  <defs>
    <linearGradient id="hiLeaf" x1="0%" y1="100%" x2="100%" y2="0%">
      <stop offset="0%" stop-color="#7ecf8a"/>
      <stop offset="100%" stop-color="#c8f5a8"/>
    </linearGradient>
    <linearGradient id="hiPot" x1="0%" y1="0%" x2="0%" y2="100%">
      <stop offset="0%" stop-color="#c4a882"/>
      <stop offset="100%" stop-color="#8d7355"/>
    </linearGradient>
  </defs>
  <ellipse cx="48" cy="78" rx="28" ry="10" fill="rgba(0,0,0,0.12)"/>
  <path d="M28 72h40v6c0 4-9 8-20 8s-20-4-20-8v-6z" fill="url(#hiPot)" stroke="#6b5340" stroke-width="2"/>
  <path d="M48 72V42" stroke="#5a8f52" stroke-width="3.5" stroke-linecap="round"/>
  <path d="M48 52c-14-16-28-14-32 4 12-6 22 2 24 16" fill="url(#hiLeaf)" opacity="0.95"/>
  <path d="M48 48c14-18 28-12 30 8-14-8-24 4-26 18" fill="url(#hiLeaf)" opacity="0.88"/>
  <circle cx="48" cy="38" r="6" fill="#ffd878" stroke="#e8b060" stroke-width="1.5"/>
</svg>
