<svg xmlns="http://www.w3.org/2000/svg" viewBox="0 0 96 96" fill="none">
  <defs>
    <linearGradient id="hjCover" x1="0%" y1="0%" x2="100%" y2="100%">
      <stop offset="0%" stop-color="#f5f0e8"/>
      <stop offset="100%" stop-color="#dccfb8"/>
    </linearGradient>
    <linearGradient id="hjMetal" x1="0%" y1="0%" x2="0%" y2="100%">
      <stop offset="0%" stop-color="#c8ccd4"/>
      <stop offset="100%" stop-color="#8e96a8"/>
    </linearGradient>
  </defs>
  <!-- notebook -->
  <rect x="22" y="18" width="48" height="62" rx="6" fill="url(#hjCover)" stroke="#b8a892" stroke-width="2"/>
  <rect x="26" y="22" width="40" height="54" rx="3" fill="#faf8f4" stroke="#d4cbb8" stroke-width="1"/>
  <line x1="32" y1="32" x2="58" y2="32" stroke="#c9bfb0" stroke-width="1.5" stroke-linecap="round"/>
  <line x1="32" y1="40" x2="54" y2="40" stroke="#ddd5c8" stroke-width="1.2" stroke-linecap="round"/>
  <line x1="32" y1="46" x2="56" y2="46" stroke="#ddd5c8" stroke-width="1.2" stroke-linecap="round"/>
  <!-- spiral binding -->
  <circle cx="20" cy="30" r="2.2" fill="#9aa0ab"/>
  <circle cx="20" cy="42" r="2.2" fill="#9aa0ab"/>
  <circle cx="20" cy="54" r="2.2" fill="#9aa0ab"/>
  <!-- padlock -->
  <path d="M54 44v-6c0-6.08 4.92-11 11-11s11 4.92 11 11v6" stroke="url(#hjMetal)" stroke-width="3.2" stroke-linecap="round"/>
  <rect x="52" y="42" width="26" height="22" rx="4" fill="#aeb6c4" stroke="#7d8598" stroke-width="2"/>
  <circle cx="65" cy="53" r="3.5" fill="#3a4152"/>
  <path d="M65 53v5" stroke="#d8dce6" stroke-width="2" stroke-linecap="round"/>
</svg>
